<?xml version="1.0" encoding="UTF-8"?><svg xmlns="http://www.w3.org/2000/svg" viewBox="0 0 1920 1080"><defs><style>.c{fill:#3b44ad;}.d{stroke:#64c18f;stroke-width:16.89px;}.d,.e{stroke-linejoin:round;}.d,.e,.f{fill:none;stroke-linecap:round;}.e{stroke:#ffc742;stroke-width:14.59px;}.g{fill:#ff7415;stroke:#fff;stroke-width:8.26px;}.h{fill:#63d8e6;}.f{stroke:#c552b5;stroke-width:23.13px;}.i{fill:#fff;}.j{fill:#101656;}.k{fill:#c552b5;}</style></defs><g id="a"><path class="j" d="M389.74,307.93c13.2,0,25.53,2.47,36.98,7.4,11.45,4.93,21.44,11.66,29.96,20.18,8.52,8.52,15.21,18.51,20.06,29.96,4.85,11.45,7.27,23.78,7.27,36.98s-2.47,25.32-7.4,36.86c-4.93,11.53-11.66,21.56-20.18,30.09s-18.51,15.25-29.96,20.18c-11.45,4.93-23.69,7.4-36.73,7.4s-25.28-2.47-36.73-7.4c-11.45-4.93-21.4-11.7-29.84-20.31-8.44-8.61-15.13-18.64-20.06-30.09-4.93-11.45-7.4-23.69-7.4-36.73s2.42-25.32,7.27-36.86c4.85-11.53,11.49-21.56,19.93-30.09,8.44-8.52,18.38-15.25,29.84-20.18,11.45-4.93,23.78-7.4,36.98-7.4ZM335.84,402.45c0,7.69,1.29,15.04,3.89,22.06,2.59,7.02,6.27,13.12,11.03,18.3,4.76,5.18,10.44,9.32,17.05,12.41,6.6,3.09,13.92,4.64,21.94,4.64s15.38-1.54,22.06-4.64c6.68-3.09,12.41-7.23,17.17-12.41,4.76-5.18,8.44-11.28,11.03-18.3,2.59-7.02,3.89-14.37,3.89-22.06s-1.3-15.29-3.89-22.31c-2.59-7.02-6.27-13.12-11.03-18.3-4.76-5.18-10.45-9.28-17.05-12.29-6.6-3.01-14-4.51-22.19-4.51s-15.38,1.5-22.06,4.51c-6.69,3.01-12.37,7.15-17.05,12.41-4.68,5.27-8.32,11.37-10.91,18.3-2.59,6.94-3.89,14.33-3.89,22.19Z"/><path class="j" d="M499.31,364.84h39.11v13.79c4.01-5.01,9.48-9.07,16.42-12.16,6.93-3.09,14.42-4.64,22.44-4.64,9.53,0,18.09,1.84,25.7,5.52,7.6,3.68,14.08,8.61,19.43,14.79,5.35,6.19,9.48,13.37,12.41,21.56,2.92,8.19,4.39,16.8,4.39,25.82s-1.47,17.39-4.39,25.57c-2.93,8.19-7.11,15.38-12.54,21.56-5.43,6.19-11.95,11.12-19.56,14.79-7.61,3.67-16.09,5.52-25.45,5.52-8.02,0-15.54-1.55-22.56-4.64-7.02-3.09-12.45-7.15-16.3-12.16v66.44h-39.11v-181.77ZM569.01,463.63c4.51,0,8.65-.88,12.41-2.63s7.06-4.14,9.9-7.15c2.84-3.01,5.05-6.6,6.64-10.78,1.59-4.18,2.38-8.69,2.38-13.54s-.8-9.36-2.38-13.54c-1.59-4.18-3.8-7.77-6.64-10.78-2.84-3.01-6.14-5.39-9.9-7.15-3.76-1.76-7.9-2.63-12.41-2.63s-8.69.84-12.54,2.51c-3.85,1.67-7.19,4.01-10.03,7.02-2.84,3.01-5.06,6.6-6.64,10.78-1.59,4.18-2.38,8.78-2.38,13.79s.79,9.36,2.38,13.54c1.59,4.18,3.8,7.77,6.64,10.78,2.84,3.01,6.18,5.39,10.03,7.15,3.84,1.75,8.02,2.63,12.54,2.63Z"/><path class="j" d="M716.68,361.84c10.53,0,19.81,1.88,27.83,5.64s14.67,9.03,19.93,15.8,9.11,14.96,11.53,24.57c2.42,9.61,3.13,20.27,2.13,31.97h-91.01c2.01,8.02,6.56,14.21,13.66,18.55,7.1,4.35,16,6.52,26.7,6.52,7.19,0,14.46-1.13,21.81-3.38,7.35-2.26,13.7-5.3,19.05-9.15v33.35c-5.85,3.68-12.79,6.48-20.81,8.4-8.02,1.92-16.38,2.88-25.07,2.88-9.86,0-19.14-1.59-27.83-4.76-8.69-3.17-16.3-7.69-22.82-13.54-6.52-5.85-11.7-12.91-15.54-21.19-3.85-8.27-5.77-17.51-5.77-27.71,0-9.19,1.71-17.93,5.14-26.2,3.42-8.27,8.11-15.5,14.04-21.69,5.93-6.18,12.91-11.07,20.94-14.67,8.02-3.59,16.71-5.39,26.08-5.39ZM688.1,414.99h53.91c-.84-6.35-3.6-11.62-8.27-15.8-4.68-4.18-10.53-6.27-17.55-6.27s-12.5,1.92-17.43,5.77c-4.93,3.85-8.49,9.28-10.66,16.3Z"/><path class="j" d="M797.91,493.97v-129.12h39.11v12.79c3.84-4.85,8.86-8.69,15.04-11.53,6.18-2.84,12.87-4.26,20.06-4.26,14.54,0,26.03,4.35,34.47,13.04,8.44,8.69,12.66,20.56,12.66,35.6v83.49h-39.36v-72.71c0-7.18-1.92-12.99-5.77-17.43-3.85-4.43-9.03-6.64-15.54-6.64s-11.75,2.26-15.67,6.77c-3.93,4.51-5.89,10.28-5.89,17.3v72.71h-39.11Z"/><path class="j" d="M1046.37,303.42l67.95,124.36,67.44-124.36,56.41,190.55h-40.87l-28.08-97.28-54.91,102.3-55.41-102.3-27.83,97.28h-40.87l56.16-190.55Z"/><path class="j" d="M1243.69,453.35c0-6.85,1.42-12.87,4.26-18.05,2.84-5.18,6.6-9.53,11.28-13.04,4.68-3.51,10.03-6.14,16.05-7.9,6.02-1.75,12.12-2.63,18.3-2.63,5.85,0,11.62.88,17.3,2.63,5.68,1.76,9.94,3.97,12.79,6.64v-5.52c0-6.18-2.63-11.11-7.9-14.79-5.26-3.67-12.41-5.52-21.44-5.52-11.53,0-23.4,3.43-35.6,10.28v-33.85c5.52-3.01,12.29-5.39,20.31-7.15,8.02-1.75,16.05-2.63,24.07-2.63,18.72,0,33.13,4.51,43.25,13.54,10.11,9.03,15.17,21.9,15.17,38.61v79.98h-37.86v-8.02c-2.84,3.18-7.15,5.81-12.91,7.9-5.77,2.09-11.91,3.13-18.43,3.13-7.02,0-13.5-1.05-19.43-3.13-5.94-2.09-11.08-5.05-15.42-8.9-4.35-3.84-7.73-8.44-10.15-13.79-2.42-5.35-3.63-11.28-3.63-17.8ZM1302.11,469.15c6.18,0,11.41-1.46,15.67-4.39,4.26-2.92,6.39-6.73,6.39-11.41s-2.13-8.23-6.39-11.16c-4.26-2.92-9.49-4.39-15.67-4.39s-11.66,1.47-15.92,4.39c-4.26,2.93-6.39,6.64-6.39,11.16s2.13,8.49,6.39,11.41c4.26,2.93,9.57,4.39,15.92,4.39Z"/><path class="j" d="M1383.09,364.84h39.11v13.79c4.01-5.01,9.48-9.07,16.42-12.16,6.93-3.09,14.42-4.64,22.44-4.64,9.53,0,18.09,1.84,25.7,5.52,7.6,3.68,14.08,8.61,19.43,14.79,5.35,6.19,9.48,13.37,12.41,21.56,2.92,8.19,4.39,16.8,4.39,25.82s-1.46,17.39-4.39,25.57c-2.93,8.19-7.11,15.38-12.54,21.56-5.43,6.19-11.95,11.12-19.56,14.79-7.61,3.67-16.09,5.52-25.45,5.52-8.02,0-15.54-1.55-22.57-4.64-7.02-3.09-12.45-7.15-16.3-12.16v66.44h-39.11v-181.77ZM1452.79,463.63c4.51,0,8.65-.88,12.41-2.63s7.06-4.14,9.9-7.15c2.84-3.01,5.05-6.6,6.64-10.78,1.59-4.18,2.38-8.69,2.38-13.54s-.8-9.36-2.38-13.54c-1.59-4.18-3.8-7.77-6.64-10.78-2.84-3.01-6.14-5.39-9.9-7.15-3.76-1.76-7.9-2.63-12.41-2.63s-8.69.84-12.54,2.51c-3.85,1.67-7.19,4.01-10.03,7.02-2.84,3.01-5.06,6.6-6.64,10.78-1.59,4.18-2.38,8.78-2.38,13.79s.79,9.36,2.38,13.54c1.59,4.18,3.8,7.77,6.64,10.78,2.84,3.01,6.18,5.39,10.03,7.15,3.84,1.75,8.02,2.63,12.54,2.63Z"/><path class="j" d="M1574.39,466.89c4.51,0,8.15-.83,10.91-2.51,2.76-1.67,4.14-4.01,4.14-7.02,0-2.17-.59-3.89-1.75-5.14-1.17-1.25-3.6-2.71-7.27-4.39l-24.32-10.03c-8.52-3.51-14.67-8.02-18.43-13.54-3.76-5.52-5.64-12.37-5.64-20.56,0-6.68,1.42-12.62,4.26-17.8,2.84-5.18,6.56-9.57,11.16-13.16,4.59-3.59,9.82-6.31,15.67-8.15,5.85-1.84,11.87-2.76,18.05-2.76,6.52,0,12.95.92,19.31,2.76,6.35,1.84,12.12,4.43,17.3,7.77v34.35c-6.35-4.51-12.66-8.02-18.93-10.53-6.27-2.51-12.08-3.76-17.42-3.76-8.69,0-13.04,3.01-13.04,9.03,0,2.17.75,3.97,2.26,5.39,1.5,1.42,4.6,3.13,9.28,5.14l22.31,9.53c8.52,3.35,14.67,7.69,18.43,13.04,3.76,5.35,5.64,12.12,5.64,20.31,0,7.02-1.5,13.16-4.51,18.43s-6.98,9.65-11.91,13.16c-4.93,3.51-10.49,6.14-16.67,7.9-6.19,1.76-12.45,2.63-18.8,2.63-8.19,0-16.05-1-23.57-3.01s-14.21-4.93-20.06-8.78v-35.35c5.68,5.18,12.45,9.32,20.31,12.41,7.85,3.1,15.63,4.64,23.32,4.64Z"/><path class="e" d="M1424.76,269.64c6.28,18.32,14.58,36.85,18.62,55.87"/><path class="e" d="M1511.22,212.45c0,33.71-3.84,70.36,1.33,103.75"/><path class="e" d="M1610.98,217.77c-10.53,35.59-24.93,69.72-35.91,105.08"/><path class="e" d="M1702.76,284.28c-12.92,17.41-25.63,32.35-41.91,46.71-5.12,4.52-10.58,8.65-13.96,14.47"/><path class="e" d="M1746.66,386.7c-20.99,13.4-48.81,13.94-71.83,22.61"/><path class="k" d="M718.92,706.96c-.41-10.31,4.73-28.29,9.84-55.4.9-4.62-4.68-6.06-7.15-2.24-2.75,4.14-12.23,20.91-14.8,23.22-7.04,8.09-16.84,6.94-21.19-3.09-3.16-6.16-5.99-29.37-12.95-28.89-5.75.4-13.16,33.74-15.83,52.17-1.43,10.13-6.56,15.04-13.62,14.02-5.25-1.16-9.26-6.35-9.05-12.14.03-3.96.71-7.34,1.36-11.04,5.08-23.15,16.69-70.46,23.52-81.57,5.24-7.66,13.98-8.87,20.81-2.36,6.13,5.05,10.55,16.29,16.23,28.05,3.21,6.77,6.55,6.84,10.97.45l11.33-16.29c15.77-22.37,23.91-27.8,33-23.87,8.74,3.34,10.26,12.06,6.7,30.84-7.02,39.09-16.14,87.14-17.93,92.13-2.37,5.33-7.06,7.79-12.59,6.95-5.85-1.11-8.22-4.6-8.66-10.95Z"/><path class="k" d="M773.09,703.51c-.57-8.17,9.94-45.07,15.68-63.1,9.12-30.72,12.29-41.89,15.16-48.77,2.91-6.28,7.54-9.64,14.19-10.1,8.77-.61,46.24-3.81,50.8-3.83,5.16-.05,9.73,4.49,10.13,10.24.03,4.86-3.32,9.05-8.38,10.61-2.68.79-28.33,3.49-36.8,4.07-7.58.22-11.91,3.56-13.22,10.95-.7,3.09-3.7,12.42-4.44,14.9-1.18,4.95,1.19,8.43,6.36,8.37,17.07.64,27.7.51,25.25,13.45-.59,4.6-4.03,7.58-8.25,8.17-7.5,1.43-28.88-.12-33.13,4.43-1.97,2.26-6.3,18.67-7.4,24.83-1.9,7.73,6.92,7.73,14.18,7.22l22.99-1.59c9.38-.65,14.79,2.93,15.23,9.28.16,6.68-4.97,11.59-13.4,12.78-16.58,2.06-49.01,3.4-54.6,1.66-6.54-2.28-9.9-6.91-10.36-13.57Z"/><path class="k" d="M885.83,685.66c-.71-10.29.71-20.42,2.14-30.55,1.86-12.59,10.39-51.79,12.91-59.26,4.46-14.59,10.17-19.85,22.01-20.07,20.27-1.41,42.37-2.64,44.14,9.7,3.08,13.77-18.48,14.05-35.31,12.48-5.79-.21-9.05.93-10.15,7.09-.85,5.23-2.05,9.87-2.93,14.79-.96,3.71,1.07,6.61,5.34,6.92,13.09.31,21.78-1.51,23.73,8.99,1.59,14.18-13.42,12.48-28.44,15.04-6.03.72-8.04,2.38-9.18,7.93-.66,3.69-.97,7.97-1.3,11.94.03,4.86,2.64,7.42,8.09,7.04,19.06-1.32,30.05-9.38,33.74,4.35,1.2,4.17-.9,8.88-5.27,11.61-4.67,2.76-37.72,8.39-41.65,8.67-11.26-.13-17.1-5.5-17.88-16.69Z"/><path class="k" d="M1013.94,678.9c6.18-20.49,17.96-74.2,17.26-84.18-.19-2.72-1.57-5.06-4.89-4.83-16.33,1.13-33.37,5.35-40.63,5.86-3.63.25-6.82-1.96-8.69-7-2.54-5.9,2.43-13.24,10.21-14.99,20.88-5.7,36.57-7.4,95.58-11.19,11.8-.82,17.8,2.41,18.3,9.67.36,5.14-3.24,10.26-8.95,11.26-7.22,1.11-17.18,2.1-23.23,2.52-11.8.82-12.64,1.79-14.89,13.19-5.2,30.15-11.69,63.73-18.61,86.71-3.02,9.02-9.71,13.44-16.29,10.55-6.58-2.89-8.17-8.25-5.17-17.58Z"/><path class="k" d="M1125.89,575.08c2.32-5.94,7.26-9.32,12.18-8.44,7.37,1.01,9.94,7.52,8.06,19.81-3.09,21.19-9.63,40.79-15.18,61.54-6.53,24.16-8.81,39.52-20.58,36.38-13.24-2.43-7.46-19.85-3.58-34.1,8.72-27.66,17.12-68.67,19.1-75.19Z"/><path class="k" d="M1158.66,670.68c-.29-4.24,5.03-28.31,10.25-45.09,9.01-32.24,15.84-65.24,28.24-66.1,3.91-.58,7.67.99,10.62,4.13,4.59,4.85,11.79,25.32,15.46,38.75l3.5,11c1.83,4.43,2.88,6.49,6.21,6.26,3.93-.27,5.03-6.43,8.72-18.84,4.9-17.06,10.4-34.16,15.81-39.4,2.01-1.66,4.07-2.71,7.09-2.92,4.54-.32,10.88,3.5,11.06,10.48.15,2.12-.59,4.6-1.61,7.41-9.94,23.18-12.56,33.7-22.03,68.1-1.94,7.13-4.09,15.48-7.07,25.11-1.5,4.66-4.94,7.64-9.18,7.93s-8.62-1.53-12.26-5.84c-5.97-7.19-7.25-16.82-19.65-55.48-1.79-3.83-6.65-3.79-8.21-.04-6.23,15.33-11.64,38.2-14.84,53.31-1.83,8.64-6.38,13.21-12.84,12.14-4.92-.87-8.87-5.16-9.27-10.91Z"/><path class="k" d="M1284.32,641.9c.39-33.77,10.96-74.32,32.07-89.77,3.48-2.37,7.33-3.85,10.94-4.41,8.75-.91,17.58,3.64,22.16,12.75,2.43,4.39,1.86,9.29-1.24,12.85-3.7,3.6-7.59,4.48-11.67,2.63-6.58-2.89-9.09-3.93-12.42.56-1.95,2.57-3.55,5.72-4.88,8.55-7.77,15.13-11.73,32.43-12.47,52.54-.5,10.37,3.6,16.77,10.86,16.27,5.14-.36,10.86-5.62,16.4-13.3,5.29-7.05,5.18-8.57-1.63-14.78-7.12-6.19-4.59-17.92,5.66-19.24,7.22-1.11,13.31-.92,18.58.53,8.4,2.76,12.51,9.47,10.55,16.29-7.77,28.2-27.07,52.34-50.67,53.97-18.8.7-30.88-15.79-32.25-35.46Z"/><path class="f" d="M673.81,783.06c103.44-24.43,211.91-35.07,317.48-48.72,103.78-13.42,202.85-25.03,307.72-24.8"/><path class="d" d="M432.18,268.94c-47.3,11.56-94.82,23.83-133.28,54.3-85.02,68.99-36.6,160.69,50.78,199.13,40.77,19.13,87.62,30.27,132.75,37.56,137.76,21.24,272.12,10.66,385.28-36.56,54.32-23.98,110.56-58.44,118.16-108.4,2.62-22.99-7.75-43.35-23.62-60.49-45.76-47.38-122.47-71.29-192.5-86.62-54.6-11.56-109.18-18.43-163.23-21.77-76.31-5.06-151.4.07-226.82,5.97"/></g><g id="b"><polygon class="h" points="463.52 722 445.3 752.4 423.11 735.32 447.43 710.32 408.49 694.59 515.44 634.32 488.8 755.06 463.52 722"/><path class="i" d="M509.42,642.46l-22.74,103.04-23.58-30.84-18.96,31.64-14.85-11.42,25.37-26.08-36.68-14.82,91.43-51.52M521.47,626.19l-16.1,9.07-91.43,51.52-14.95,8.42,15.91,6.43,25.28,10.22-16.8,17.27-6.47,6.65,7.35,5.65,14.85,11.42,7.35,5.65,4.77-7.96,12.71-21.21,16.19,21.17,10.79,14.11,3.83-17.35,22.74-103.04,3.98-18.04h0Z"/><path class="g" d="M1207.87,315.34v17.29c0,1.59,1.25,2.84,2.84,2.84h17.29c.74,0,1.48-.28,1.99-.85l62.12-62.06-21.33-21.33-62.06,62.06c-.57.57-.85,1.25-.85,2.05M1308.61,256.07c2.21-2.21,2.22-5.8,0-8.01,0,0,0,0,0,0l-13.31-13.31c-2.21-2.21-5.8-2.22-8.01,0,0,0,0,0,0,0l-10.41,10.41,21.33,21.33,10.41-10.41Z"/><path class="c" d="M1497.02,713.66c-1.34,0-2.54-.13-3.66-.4-6.08-1.45-12.18-3.1-18.09-4.69-7.28-1.96-14.8-3.99-22.23-5.64-9.44-2.1-14.77-8.2-16.3-18.65-1.71-11.69-.16-23.74,4.61-35.79,1.12-2.83,2.35-5.67,3.54-8.41.11-.25.21-.49.32-.74l-6.88-4.66c-7.84-5.31-15.41-10.43-23-15.53-4.66-3.13-9.37-8.41-5.4-15.82,2.67-4.97,6.54-6.02,9.31-6.02,2.96,0,5.81,1.21,7.69,2.12,3.49,1.69,6.97,3.39,10.46,5.09,10.13,4.95,20.62,10.07,31.04,14.78,6.07,2.74,12.29,5.06,18.87,7.53,1.42.53,2.85,1.06,4.28,1.61.39-2.78.75-5.23,1.28-7.74l.2-.98c.82-3.9,1.66-7.94,3.22-11.82,4.33-10.74,11.51-12.99,16.78-12.99,2.7,0,5.68.59,8.83,1.74l3.53,1.29-.95,3.63c-4.06,15.45.18,29.93,4.67,45.27,1.98,6.76,4.03,13.75,5.32,20.86l.29,1.59-27.57,43.6-2.15.1c-1.13.05-2.29.18-3.41.31-1.5.17-3.05.34-4.59.34h0Z"/><path class="i" d="M1513.06,599.05c2.23,0,4.7.5,7.42,1.49-6.24,23.78,5.78,45.18,9.93,67.92-8.42,13.31-16.77,26.52-25.56,40.42-2.81.13-5.41.65-7.81.65-.93,0-1.83-.08-2.7-.29-13.51-3.23-26.82-7.33-40.38-10.35-8.63-1.92-11.99-7.52-13.12-15.22-1.7-11.59.07-22.83,4.36-33.68,1.61-4.06,3.4-8.04,5.16-12.18-11.42-7.72-22.05-14.93-32.72-22.1-3.82-2.57-6.6-5.7-4.06-10.44,1.52-2.82,3.48-3.84,5.67-3.84,1.85,0,3.86.73,5.89,1.71,13.84,6.7,27.59,13.59,41.59,19.92,9.02,4.07,18.43,7.27,28.2,11.07.75-4.92,1.17-8.79,1.96-12.59.86-4.08,1.67-8.26,3.22-12.1,2.8-6.95,7.06-10.41,12.95-10.41M1513.06,590.8s0,0,0,0c-12.47,0-18.26,9.76-20.61,15.58-1.7,4.22-2.58,8.44-3.44,12.52l-.2.96c-.21.98-.39,1.95-.55,2.93-6.34-2.37-12.34-4.62-18.13-7.24-10.36-4.68-20.8-9.78-30.9-14.71-3.5-1.71-6.99-3.42-10.49-5.11-2.25-1.09-5.68-2.54-9.49-2.54-5.51,0-10.11,2.91-12.95,8.19-1.98,3.68-5.29,13.13,6.73,21.2,7.59,5.1,15.09,10.18,23.03,15.55,1.33.9,2.66,1.8,4,2.71-.87,2.01-1.73,4.06-2.55,6.13-5.04,12.74-6.68,25.49-4.86,37.91,1.78,12.17,8.34,19.6,19.49,22.08,7.34,1.63,14.82,3.65,22.05,5.6,5.93,1.6,12.07,3.25,18.2,4.72,1.44.34,2.95.51,4.62.51,1.78,0,3.44-.19,5.05-.37,1.1-.12,2.15-.24,3.15-.29l4.29-.2,2.3-3.63,21.87-34.58,3.7-5.85,1.72-2.72-.58-3.17c-1.34-7.33-3.41-14.42-5.42-21.28-4.32-14.77-8.41-28.71-4.64-43.06l1.91-7.27-7.06-2.58c-3.61-1.32-7.06-1.99-10.25-1.99h0Z"/></g></svg>