<?xml version="1.0" encoding="UTF-8"?><svg id="b" xmlns="http://www.w3.org/2000/svg" viewBox="0 0 90.63 81.07"><defs><style>.d{fill:#101656;}</style></defs><g id="c"><polygon class="d" points="1.6 27.71 18.99 34.17 18.96 80.7 1.6 74.3 1.6 27.71"/><path class="d" d="M19.7,16.41c1.99,5.9-.65,10.68-5.9,10.68S2.66,22.31.67,16.41c-1.99-5.9.65-10.68,5.9-10.68s11.13,4.78,13.13,10.68Z"/><polygon class="d" points="41.11 27.71 23.72 34.17 23.75 80.7 41.11 74.3 41.11 27.71"/><path class="d" d="M22.9,16.41c-1.99,5.9.65,10.68,5.9,10.68s11.13-4.78,13.13-10.68c1.99-5.9-.65-10.68-5.9-10.68s-11.13,4.78-13.13,10.68Z"/><polygon class="d" points="45.56 27.71 62.95 34.17 62.92 80.7 45.56 74.3 45.56 27.71"/><path class="d" d="M63.77,16.41c1.99,5.9-.65,10.68-5.9,10.68s-11.13-4.78-13.13-10.68c-1.99-5.9.65-10.68,5.9-10.68s11.13,4.78,13.13,10.68Z"/><path class="d" d="M90.63,0v15.98s-5.63-2.2-6.31,3.49c-.06,6.06,0,8.24,0,8.24l6.31-2.05v14.02l-6.33,2.27v32.7l-17.3,6.43V23.27s-.37-20.82,23.64-23.27Z"/></g></svg>