<?xml version="1.0" encoding="UTF-8"?><svg id="b" xmlns="http://www.w3.org/2000/svg" viewBox="0 0 272.28 266.81"><defs><style>.l,.m{fill:#ff56ba;}.n{fill:#ffbbe3;stroke-width:13.45px;}.n,.o,.p,.q,.r{stroke:#ff56ba;}.n,.o,.r,.m{fill-rule:evenodd;}.o,.p,.q,.r{fill:none;}.o,.q,.r{stroke-width:13px;}.p{stroke-width:13px;}.r{stroke-miterlimit:10;}</style></defs><g id="c"><polygon class="n" points="6.73 260.08 203.77 260.08 261.07 147.58 265.35 6.73 48.91 6.73 48.45 53.21 6.73 53.21 6.73 260.08"/><path class="r" d="M88.27,61.79c8.76-8.76,22.96-8.76,31.72,0"/><path class="r" d="M166.4,61.79c8.76-8.76,22.96-8.76,31.72,0"/><path class="o" d="M129.81,100.86c7.39-7.39,19.37-7.39,26.77,0"/><ellipse class="l" cx="176.22" cy="110.52" rx="11.01" ry="10.77"/><path class="m" d="M110.18,99.75c-6.08,0-11.01,4.82-11.01,10.77s4.93,10.77,11.01,10.77,11.01-4.82,11.01-10.77-4.93-10.77-11.01-10.77"/><circle class="q" cx="176.22" cy="110.52" r="22.95"/><circle class="q" cx="110.18" cy="110.52" r="22.95"/><g id="d"><line class="p" x1="177.32" y1="86.07" x2="177.32" y2="69.87"/></g><g id="e"><line class="p" x1="189.54" y1="89.35" x2="197.64" y2="75.32"/></g><g id="f"><line class="p" x1="198.49" y1="98.29" x2="212.52" y2="90.19"/></g><g id="g"><line class="p" x1="201.76" y1="110.52" x2="217.96" y2="110.52"/></g><g id="h"><line class="q" x1="110.18" y1="86.07" x2="110.18" y2="69.87"/></g><g id="i"><line class="q" x1="97.95" y1="89.35" x2="89.85" y2="75.32"/></g><g id="j"><line class="q" x1="89.01" y1="98.29" x2="74.98" y2="90.2"/></g><g id="k"><line class="q" x1="85.73" y1="110.52" x2="69.53" y2="110.52"/></g><path class="m" d="M183.21,148.2l13.36,7.61c-10.75,18.16-30.73,30.43-53.69,30.43-22.96,0-42.95-12.27-53.7-30.43h0l13.36-7.61c8.3,14.13,23.69,22.84,40.34,22.82,16.65.01,32.04-8.69,40.34-22.83h0Z"/></g></svg>