<?xml version="1.0" encoding="UTF-8"?><svg id="b" xmlns="http://www.w3.org/2000/svg" xmlns:xlink="http://www.w3.org/1999/xlink" viewBox="0 0 192.67 96.64"><defs><style>.ah{mask:url(#y);}.ai{mask:url(#v);}.aj{mask:url(#g);}.ak{mask:url(#d);}.al{mask:url(#j);}.am{mask:url(#s);}.an{mask:url(#m);}.ao{mask:url(#p);}.ap{mask:url(#ab);}.aq{mask:url(#ae);}.ar{fill:#fff;}.ar,.as{fill-rule:evenodd;}.as{fill:#101656;}</style><mask id="d" x="-3.01" y="-3.64" width="67.14" height="88.21" maskUnits="userSpaceOnUse"><g id="e"><polygon id="f" class="ar" points="6.56 -3.64 64.14 3.12 54.58 84.56 -3.01 77.8 6.56 -3.64"/></g></mask><mask id="g" x="19.89" y="-91.15" width="172.79" height="181.19" maskUnits="userSpaceOnUse"><g id="h"><polygon id="i" class="ar" points="19.89 90.04 192.67 90.04 192.67 -91.15 19.89 -91.15 19.89 90.04"/></g></mask><mask id="j" x="19.89" y="-91.15" width="172.79" height="181.19" maskUnits="userSpaceOnUse"><g id="k"><polygon id="l" class="ar" points="19.89 90.04 192.67 90.04 192.67 -91.15 19.89 -91.15 19.89 90.04"/></g></mask><mask id="m" x="19.89" y="-91.15" width="172.79" height="181.19" maskUnits="userSpaceOnUse"><g id="n"><polygon id="o" class="ar" points="19.89 90.04 192.67 90.04 192.67 -91.15 19.89 -91.15 19.89 90.04"/></g></mask><mask id="p" x="19.89" y="-91.15" width="172.79" height="181.19" maskUnits="userSpaceOnUse"><g id="q"><polygon id="r" class="ar" points="19.89 90.04 192.67 90.04 192.67 -91.15 19.89 -91.15 19.89 90.04"/></g></mask><mask id="s" x="19.89" y="-91.15" width="172.79" height="181.19" maskUnits="userSpaceOnUse"><g id="t"><polygon id="u" class="ar" points="19.89 90.04 192.67 90.04 192.67 -91.15 19.89 -91.15 19.89 90.04"/></g></mask><mask id="v" x="32.09" y="-68.68" width="141.72" height="148.61" maskUnits="userSpaceOnUse"><g id="w"><polygon id="x" class="ar" points="32.09 79.93 173.81 79.93 173.81 -68.68 32.09 -68.68 32.09 79.93"/></g></mask><mask id="y" x="32.09" y="-68.68" width="141.72" height="148.61" maskUnits="userSpaceOnUse"><g id="z"><polygon id="aa" class="ar" points="32.09 79.93 173.81 79.93 173.81 -68.68 32.09 -68.68 32.09 79.93"/></g></mask><mask id="ab" x="-82.18" y="-138.8" width="224.52" height="235.44" maskUnits="userSpaceOnUse"><g id="ac"><polygon id="ad" class="ar" points="-82.18 96.64 142.35 96.64 142.35 -138.8 -82.18 -138.8 -82.18 96.64"/></g></mask><mask id="ae" x="-82.18" y="-138.8" width="224.52" height="235.44" maskUnits="userSpaceOnUse"><g id="af"><polygon id="ag" class="ar" points="-82.18 96.64 142.35 96.64 142.35 -138.8 -82.18 -138.8 -82.18 96.64"/></g></mask></defs><g id="c"><g class="ak"><path class="as" d="M50.7,68.7c-3.72,2.63-9,5.14-14.86,7.08-5.87,1.94-11.6,3.07-16.15,3.18-4.19.1-6.98-.72-7.47-2.2-.49-1.48,1.26-3.8,4.68-6.22,2.51-1.77,5.73-3.49,9.35-5.02.48.06.96.12,1.44.18,11.16,1.31,23.12.68,27.77-2.59-.08,1.47-1.79,3.5-4.76,5.6M54.43,61.39c-1.15.87-3.33,1.74-6.92,2.32-4.75.77-10.8.85-17.24.25.49-.17.98-.34,1.48-.51,5.87-1.94,11.6-3.07,16.15-3.18,1.16-.03,2.22.02,3.15.13,1.47.17,2.62.51,3.38.99M8.86,59.18c-5.27-2.19-7-4.28-6.86-5.49.06-.48.43-1.02,1.19-1.56,1.95,1.71,4.92,2.81,8.56,3.24,5.21.61,11.79-.15,18.67-2.42,1.85-.61,3.64-1.31,5.35-2.08,4.88.9,9.31,2.14,12.83,3.6,5.27,2.19,7,4.28,6.86,5.49-.02.16-.07.33-.16.5-1.44-1.02-3.95-1.51-7.41-1.42-4.67.11-10.54,1.26-16.52,3.24-1.32.44-2.61.9-3.87,1.39-7.15-.87-13.76-2.46-18.64-4.49M30.34,50.02c-.26.09-.53.18-.79.27-10.47,3.46-19.28,3.05-23.46.51,1.05-.33,2.32-.63,3.85-.88,5.32-.86,12.28-.86,19.6,0,.27.03.53.07.8.1M3.68,48.07c-.89-2.68,1.16-6.45,5.6-10.02.25.33.52.65.81.95,2.16,2.29,5.05,3.67,8.44,4.06,1.87.22,3.88.14,6-.25,5.52-1.01,11.19-4.05,15.97-8.55,1.58-1.49,3.01-3.1,4.26-4.77,2.23.83,3.71,2.07,4.21,3.59.78,2.37-.7,5.53-4.07,8.67-2.76,2.58-6.5,4.92-10.81,6.8-1.44-.24-2.89-.44-4.33-.61-9.6-1.13-19.8-.82-25.42,1.37-.3-.39-.53-.8-.67-1.24M38.46,28.38c-.56.62-1.16,1.23-1.78,1.82-7.81,7.36-18.13,9.64-22.53,4.97-.08-.09-.15-.18-.23-.27,2.63-1.51,5.71-2.89,9.19-4.05,5.79-1.92,11.07-2.64,15.34-2.48M20.45,12.98c4.01-3.77,8.68-6.31,13.15-7.13,1.56-.29,3.01-.35,4.32-.19,2.09.25,3.82,1.04,5.05,2.35h0c2.01,2.13,2.57,5.5,1.6,9.48-.68,2.79-2.05,5.61-3.98,8.27-5.16-.55-11.61.23-18.36,2.46-3.57,1.18-6.82,2.64-9.67,4.27-1.74-5.22,1.34-13.34,7.88-19.5M57.44,60.19c.53-4.52-8.22-8.48-18.73-10.76,3.15-1.67,5.91-3.58,8.11-5.63,4.26-3.98,5.97-8.09,4.81-11.59-.74-2.24-2.6-3.95-5.25-5.06,1.69-2.69,2.92-5.51,3.61-8.33,1.44-5.89.4-11.08-2.95-14.64-3.35-3.55-8.48-4.91-14.44-3.81-5.52,1.01-11.19,4.05-15.97,8.55-4.78,4.5-8.15,9.99-9.48,15.44-1.04,4.24-.79,8.13.69,11.3C2.41,39.94-.33,44.82,1.04,48.94c.2.6.48,1.16.83,1.68-1.07.79-1.72,1.72-1.85,2.82-.62,5.25,11.27,9.73,23.89,11.73-2.96,1.35-5.6,2.83-7.74,4.34-4.07,2.87-5.85,5.51-5.15,7.63.52,1.59,2.34,2.58,5.31,2.93,1,.12,2.12.16,3.37.13,4.67-.11,10.54-1.26,16.52-3.24,5.98-1.98,11.37-4.55,15.19-7.25,4.05-2.87,5.83-5.5,5.15-7.61.49-.58.79-1.21.87-1.92"/></g><path class="as" d="M92.89,27.86c1.98,0,2.97-.83,2.97-2.5,0-.85-.24-1.47-.72-1.87-.48-.39-1.23-.59-2.26-.59h-.81v4.96h.81ZM86.05,18.37h7.77c2.54,0,4.53.62,5.96,1.86,1.43,1.24,2.15,2.96,2.15,5.15s-.71,3.95-2.13,5.18c-1.42,1.23-3.42,1.84-6.01,1.84h-1.72v5.79h-6.03v-19.83Z"/><polygon class="as" points="104.8 18.37 119.18 18.37 119.18 23.09 110.54 23.09 110.54 25.85 118.11 25.85 118.11 30.57 110.54 30.57 110.54 33.47 119.54 33.47 119.54 38.19 104.8 38.19 104.8 18.37"/><polygon class="as" points="123.74 18.37 129.09 18.37 136.81 28.85 136.81 18.37 142.58 18.37 142.58 38.19 137.23 38.19 129.51 27.73 129.51 38.19 123.74 38.19 123.74 18.37"/><path class="as" d="M84.87,65.79c-1.3,1.05-3.06,1.58-5.28,1.58-.77,0-1.56-.07-2.38-.21-.82-.14-1.58-.33-2.3-.56-.71-.23-1.31-.52-1.8-.85l.34-2.61c.83.51,1.8.91,2.9,1.23,1.1.31,2.13.47,3.11.47,1.36,0,2.43-.28,3.21-.84.78-.56,1.18-1.32,1.18-2.3,0-.57-.13-1.06-.39-1.45-.26-.39-.71-.76-1.34-1.1-.63-.34-1.53-.69-2.68-1.06-1.46-.47-2.63-.97-3.5-1.49-.87-.52-1.5-1.14-1.88-1.84-.38-.7-.58-1.54-.58-2.52,0-1.13.28-2.12.85-2.95.57-.84,1.35-1.48,2.36-1.93,1.01-.45,2.19-.68,3.55-.68.99,0,2,.13,3.02.39,1.02.26,1.92.62,2.7,1.07l-.44,2.51c-.75-.45-1.59-.8-2.53-1.06-.94-.25-1.84-.38-2.69-.38-1.22,0-2.17.25-2.86.76-.69.5-1.03,1.21-1.03,2.11,0,.52.11.97.34,1.34.23.37.63.72,1.2,1.03.57.31,1.37.64,2.4.99,1.58.5,2.85,1.04,3.8,1.61.95.57,1.63,1.2,2.05,1.91.42.7.63,1.54.63,2.52,0,1.81-.65,3.24-1.94,4.29M91.42,62.41c-.88-1.51-1.32-3.26-1.32-5.25,0-1.51.26-2.9.78-4.16.52-1.26,1.26-2.35,2.21-3.28.95-.92,2.08-1.64,3.38-2.14,1.3-.5,2.74-.76,4.31-.76,1.06,0,2.15.15,3.26.44,1.11.3,2.07.69,2.87,1.18l-.52,2.61c-1.06-.54-2.05-.93-2.96-1.17-.91-.24-1.84-.37-2.78-.37-1.48,0-2.78.32-3.89.95-1.11.64-1.98,1.52-2.61,2.65-.63,1.13-.94,2.44-.94,3.94s.31,2.86.93,3.98c.62,1.12,1.49,1.99,2.62,2.6,1.13.61,2.45.91,3.97.91.92,0,1.91-.13,2.97-.39,1.06-.26,2.07-.63,3.03-1.1l.34,2.61c-2,1.04-4.19,1.56-6.55,1.56-2.05,0-3.86-.43-5.43-1.28-1.57-.85-2.79-2.04-3.67-3.55"/><g class="aj"><polygon class="as" points="111.24 66.95 114.24 66.95 114.24 47.11 111.24 47.11 111.24 66.95"/></g><g class="al"><polygon class="as" points="120.27 47.11 132.85 47.11 132.85 49.56 123.17 49.56 123.17 55.57 131.78 55.57 131.78 58.02 123.17 58.02 123.17 64.49 133.22 64.49 133.22 66.95 120.27 66.95 120.27 47.11"/></g><g class="an"><polygon class="as" points="137.68 47.11 140.45 47.11 151.85 62.56 151.85 47.11 154.59 47.11 154.59 66.95 151.85 66.95 140.42 51.47 140.42 66.95 137.68 66.95 137.68 47.11"/></g><g class="ao"><path class="as" d="M159.9,62.41c-.88-1.51-1.32-3.26-1.32-5.25,0-1.51.26-2.9.78-4.16.52-1.26,1.26-2.35,2.21-3.28.95-.92,2.08-1.64,3.38-2.14,1.3-.5,2.74-.76,4.31-.76,1.06,0,2.15.15,3.26.44,1.11.3,2.07.69,2.87,1.18l-.52,2.61c-1.06-.54-2.05-.93-2.96-1.17-.91-.24-1.84-.37-2.78-.37-1.48,0-2.78.32-3.89.95-1.11.64-1.98,1.52-2.61,2.65-.63,1.13-.94,2.44-.94,3.94s.31,2.86.93,3.98c.62,1.12,1.49,1.99,2.62,2.6,1.13.61,2.45.91,3.97.91.92,0,1.91-.13,2.97-.39,1.06-.26,2.07-.63,3.03-1.1l.34,2.61c-2,1.04-4.19,1.56-6.55,1.56-2.05,0-3.86-.43-5.43-1.28-1.57-.85-2.79-2.04-3.67-3.55"/></g><g class="am"><polygon class="as" points="179.73 47.11 192.31 47.11 192.31 49.56 182.62 49.56 182.62 55.57 191.24 55.57 191.24 58.02 182.62 58.02 182.62 64.49 192.67 64.49 192.67 66.95 179.73 66.95 179.73 47.11"/></g><g class="ai"><path class="as" d="M64.06,35.95l4.36-4.36c-.22-.26-.41-.53-.58-.85-.37-.72-.56-1.55-.56-2.49s.19-1.76.56-2.48c.37-.71.9-1.27,1.57-1.67.67-.4,1.43-.6,2.28-.6s1.64.2,2.3.61c.39.24.72.54,1.01.89l4.37-4.36c-.93-.82-2-1.48-3.24-1.94-1.34-.5-2.82-.76-4.44-.76s-3.01.26-4.34.78c-1.33.52-2.49,1.25-3.48,2.18-.99.93-1.76,2.02-2.31,3.27-.55,1.25-.82,2.62-.82,4.1s.27,2.9.8,4.16c.53,1.26,1.28,2.35,2.26,3.27.09.08.19.16.28.24"/></g><g class="ah"><path class="as" d="M81.85,24.12c-.53-1.26-1.28-2.35-2.26-3.27-.07-.07-.15-.13-.23-.2l-4.37,4.36c.2.24.39.51.54.8.37.72.56,1.55.56,2.49s-.19,1.74-.56,2.46c-.37.72-.89,1.28-1.55,1.68-.66.4-1.43.6-2.3.6s-1.64-.2-2.3-.61c-.37-.23-.69-.52-.98-.85l-4.36,4.36c.92.8,1.97,1.44,3.19,1.9,1.34.5,2.82.76,4.43.76s3.01-.26,4.34-.78c1.33-.52,2.49-1.25,3.48-2.18.99-.93,1.76-2.02,2.31-3.27.55-1.25.82-2.62.82-4.1s-.27-2.9-.8-4.16"/></g><g class="ap"><polygon class="as" points="75.95 76.33 78.28 76.33 90.67 93.14 90.67 76.33 92.89 76.33 92.89 96.64 90.57 96.64 78.17 79.83 78.17 96.64 75.95 96.64 75.95 76.33"/></g><g class="aq"><polygon class="as" points="98.5 76.33 100.91 76.33 100.91 94.58 110.87 94.58 110.87 96.64 98.5 96.64 98.5 76.33"/></g></g></svg>