<?xml version="1.0" encoding="UTF-8"?><svg id="b" xmlns="http://www.w3.org/2000/svg" viewBox="0 0 200.34 78.1"><defs><style>.d{fill:#101656;}</style></defs><g id="c"><path class="d" d="M58.19,70.6c5.03,0,7.77-3.34,7.77-8.03v-23.91h10.7v24.45c-.11,10.76-8.73,14.99-18.47,14.99s-18.36-4.23-18.47-14.99v-24.45h10.7v23.91c0,4.69,2.73,8.03,7.77,8.03h0Z"/><polygon class="d" points="11.99 77.3 22.7 77.3 22.7 46.16 34.69 46.16 34.69 38.67 0 38.67 0 46.16 11.99 46.16 11.99 77.3 11.99 77.3"/><path class="d" d="M37.7,19.85c-2.61.82-5.3.16-5.3-3.33,0-5.32,12.5-9.78,14.24-14.44.43-1.16.46-2.11-.1-2.08-.4.02-.09.6-.96,1.48-5.18,5.18-13.85,5.17-20.51,8.15-4.37,1.96-17.16,7.98-14.21,21.41.14.64.52,2.77.91,2.77.45,0,.45-1.27.44-2.81-.1-8,9.37-10.23,12.45-15.45.37-.63,1.01-1.5,1.16-1.09.07.2.03.49-.1,1.04-.96,4.29-5.45,7.05-4.18,10.12,1.65,3.98,6.41,1.01,7.87-1.55.39-.71.61-1.16.87-1.06.2.07.19.88.07,1.61-.78,4.62-1.84,7.22-5.23,9.84-1.08.84-2.78,1.02-2.56,1.66.06.17.79.15,1.37.09,9-.58,16.53-11.19,18.53-18.13.21-.49.27-.95.05-1.12-.27-.21-.67.27-1.07.63-1.03.9-2.44,1.85-3.74,2.25h0Z"/><path class="d" d="M148.12,64.83v-2.52c0-7.44-4.21-12.69-11.83-12.69-8.51,0-12.47,6.59-12.47,14.45s3.43,14.02,12.05,14.02c6.42,0,11.13-3.05,11.94-9.15h-5.35c-.59,3.91-2.57,5.46-6.53,5.46-5.2,0-6.92-4.62-6.92-9.58h19.12ZM129.11,61.3c.04-4.19,2.57-7.98,6.81-7.98,4.92,0,6.85,3.37,6.85,7.98h-13.65Z"/><polygon class="d" points="159.38 38.66 154.29 38.66 154.29 77.3 159.38 77.3 159.38 38.66 159.38 38.66"/><path class="d" d="M175.32,77.3v-23.32h6.2v-3.54h-6.2v-4.34c0-3.11,1.49-3.64,4.39-3.64.85,0,1.71.11,2.57.16v-4.22c-1.19-.27-2.41-.54-3.64-.54-4.82,0-8.4,2.41-8.4,7.56v5.02h-5.24v3.54h5.24v23.32h5.09Z"/><path class="d" d="M184.44,50.44v3.54h4.6v17.12c0,3.57.05,7.01,7.61,7.01,1.18,0,2.28-.11,3.48-.32v-3.91c-.83.2-1.87.32-2.68.32-1.82,0-3.32-.92-3.32-2.83v-17.39h6.21v-3.54h-6.21v-7.33l-5.09,1.61v5.73h-4.6Z"/><path class="d" d="M92.73,43.26h7.91c8.93,0,12.64,6.74,12.64,14.72s-3.71,14.71-12.64,14.71h-7.91v-29.44h0ZM87.37,77.3h13.27c16.52,0,18.26-13.99,18.26-19.32s-1.73-19.32-18.26-19.32h-13.27v38.64h0Z"/></g></svg>